<svg width="16" height="16" viewBox="0 0 16 16" fill="none" xmlns="http://www.w3.org/2000/svg">
<g clip-path="url(#clip0_174_1652)">
<path d="M4.66667 0.666748V4.00008M11.3333 0.666748V4.00008M4.66667 10.6667H11.3333M8 10.6667V12.0001M4 14.6667H12C13.2571 14.6667 13.8856 14.6667 14.2761 14.2762C14.6667 13.8857 14.6667 13.2572 14.6667 12.0001V5.33341C14.6667 4.07634 14.6667 3.4478 14.2761 3.05727C13.8856 2.66675 13.2571 2.66675 12 2.66675H4C2.74292 2.66675 2.11438 2.66675 1.72386 3.05727C1.33333 3.4478 1.33333 4.07634 1.33333 5.33341V12.0001C1.33333 13.2572 1.33333 13.8857 1.72386 14.2762C2.11438 14.6667 2.74292 14.6667 4 14.6667ZM10 10.6667V8.00008C10 6.89551 9.10457 6.00008 8 6.00008C6.89543 6.00008 6 6.89551 6 8.00008V10.6667H10Z" stroke="currentColor" stroke-width="1.5" stroke-linejoin="round"/>
</g>
<defs>
<clipPath id="clip0_174_1652">
<rect width="16" height="16" fill="white"/>
</clipPath>
</defs>
</svg>
