<svg width="16" height="16" viewBox="0 0 16 16" fill="none" xmlns="http://www.w3.org/2000/svg">
<path d="M7.87953 2.50624C6.69232 3.70066 6.4131 5.46266 7.04188 6.92405L1.7467 12.2513C1.19788 12.8035 1.19788 13.6987 1.7467 14.2508C2.29552 14.803 3.18532 14.803 3.73414 14.2509L8.99894 8.95413C10.4724 9.65079 12.2833 9.38664 13.5009 8.1617C14.7033 6.95195 14.9743 5.15997 14.3139 3.68779L12.0152 6.00044C11.4664 6.55259 10.5765 6.55259 10.0277 6.00044C9.47891 5.44829 9.47891 4.55309 10.0277 4.00094L12.3264 1.6883C10.8631 1.02386 9.08197 1.29651 7.87953 2.50624Z" stroke="currentColor" stroke-width="1.5" stroke-linecap="round" stroke-linejoin="round"/>
</svg>
