<svg width="40" height="40" viewBox="0 0 40 40" fill="none" xmlns="http://www.w3.org/2000/svg">
<path d="M20.0001 34.5833H10.0001C7.47175 34.5833 5.41675 32.5283 5.41675 30V8.33333C5.41675 5.805 7.47175 3.75 10.0001 3.75H26.6667C29.1951 3.75 31.2501 5.805 31.2501 8.33333V20L20.0001 34.5833Z" fill="#E8EAEC"/>
<path d="M25.0001 17.083C19.7151 17.083 15.4167 21.383 15.4167 26.6663C15.4167 31.9497 19.7151 36.2497 25.0001 36.2497C30.2851 36.2497 34.5834 31.9497 34.5834 26.6663C34.5834 21.383 30.2851 17.083 25.0001 17.083Z" fill="#999EA4"/>
<path d="M28.2583 27.9171H25C24.31 27.9171 23.75 27.3571 23.75 26.6671V23.2754C23.75 22.5854 24.31 22.0254 25 22.0254C25.69 22.0254 26.25 22.5854 26.25 23.2754V25.4171H28.2583C28.9483 25.4171 29.5083 25.9771 29.5083 26.6671C29.5083 27.3571 28.9483 27.9171 28.2583 27.9171Z" fill="#E8EAEC"/>
<path d="M11.6667 13.75C10.9767 13.75 10.4167 14.31 10.4167 15C10.4167 15.69 10.9767 16.25 11.6667 16.25H18.3334C19.0234 16.25 19.5834 15.69 19.5834 15C19.5834 14.31 19.0234 13.75 18.3334 13.75H11.6667Z" fill="#C2C5C8"/>
<path d="M25.0001 11.25H11.6667C10.9767 11.25 10.4167 10.69 10.4167 10C10.4167 9.31 10.9767 8.75 11.6667 8.75H25.0001C25.6901 8.75 26.2501 9.31 26.2501 10C26.2501 10.69 25.6901 11.25 25.0001 11.25Z" fill="#C2C5C8"/>
<path d="M11.6667 18.75H13.3334C14.0234 18.75 14.5834 19.31 14.5834 20C14.5834 20.69 14.0234 21.25 13.3334 21.25H11.6667C10.9767 21.25 10.4167 20.69 10.4167 20C10.4167 19.31 10.9767 18.75 11.6667 18.75Z" fill="#C2C5C8"/>
</svg>
